<?xml version="1.0" standalone="no"?>
<!DOCTYPE svg PUBLIC "-//W3C//DTD SVG 20010904//EN"
 "http://www.w3.org/TR/2001/REC-SVG-20010904/DTD/svg10.dtd">
<svg version="1.0" xmlns="http://www.w3.org/2000/svg"
 width="700.000000pt" height="700.000000pt" viewBox="0 0 700.000000 700.000000"
 preserveAspectRatio="xMidYMid meet">
<metadata>
Created by potrace 1.14, written by Peter Selinger 2001-2017
</metadata>
<g transform="translate(0.000000,700.000000) scale(0.100000,-0.100000)"
fill="#000000" stroke="none">
<path d="M3220 6955 c-322 -47 -523 -106 -775 -230 -377 -185 -682 -450 -897
-780 -134 -206 -233 -426 -284 -630 -65 -264 -82 -540 -48 -783 4 -31 8 -59 9
-62 0 -3 5 -27 10 -55 4 -27 9 -54 11 -60 1 -5 7 -31 13 -57 14 -61 77 -249
103 -308 67 -153 192 -365 274 -467 19 -23 147 -218 285 -435 332 -519 332
-520 420 -656 64 -99 73 -118 58 -120 -11 -2 -19 -7 -19 -12 0 -8 114 -438
140 -530 6 -19 33 -118 61 -220 l52 -185 2 -276 c2 -218 6 -288 19 -332 32
-110 119 -202 229 -242 49 -19 84 -20 596 -21 300 0 564 3 587 7 141 27 267
154 290 294 3 22 7 166 8 320 2 271 3 283 30 380 37 137 107 397 112 415 1 8
24 92 49 185 65 239 64 234 53 237 -5 2 84 150 198 328 114 179 254 399 312
490 143 225 219 340 292 440 146 201 259 439 320 674 37 140 50 216 65 361 6
60 6 284 0 340 -17 159 -24 203 -51 315 -165 683 -674 1253 -1360 1523 -82 32
-263 90 -318 102 -239 49 -362 62 -581 62 -99 0 -218 -5 -265 -12z m-765
-4653 c-3 -3 -11 0 -18 7 -9 10 -8 11 6 5 10 -3 15 -9 12 -12z m855 -132 c0
-130 1 -140 23 -164 24 -28 31 -29 169 -27 130 1 131 3 132 189 l0 137 350 5
c349 5 390 4 381 -9 -3 -7 -65 -236 -181 -675 -25 -94 -47 -173 -49 -176 -6
-9 -1275 -9 -1280 0 -4 7 -124 447 -144 529 -21 83 -62 238 -71 261 -4 14 -11
36 -14 50 l-5 25 344 -3 345 -3 0 -139z m251 133 c3 -27 4 -150 1 -160 -3 -9
-30 -13 -91 -13 l-88 0 0 90 1 90 88 0 c48 0 88 -3 89 -7z"/>
</g>
</svg>
