<?xml version="1.0" encoding="UTF-8" standalone="no" ?>
<!DOCTYPE svg PUBLIC "-//W3C//DTD SVG 1.1//EN" "http://www.w3.org/Graphics/SVG/1.1/DTD/svg11.dtd">
<svg xmlns="http://www.w3.org/2000/svg" xmlns:xlink="http://www.w3.org/1999/xlink" version="1.1" width="640" height="640" viewBox="0 0 640 640" xml:space="preserve">
<desc>Created with Fabric.js 4.6.0</desc>
<defs>
</defs>
<g transform="matrix(1.85 0 0 1.85 248.83 551.48)" id="f81HdhtbYj0fIdDmkl59g"  >
<path style="stroke: rgb(128,177,75); stroke-width: 0; stroke-dasharray: none; stroke-linecap: butt; stroke-dashoffset: 0; stroke-linejoin: miter; stroke-miterlimit: 4; fill: rgb(33,91,133); fill-opacity: 0; fill-rule: nonzero; opacity: 1;" vector-effect="non-scaling-stroke"  transform=" translate(0, 0)" d="M -47.40741 -47.40741 L 47.407399999999996 -47.40741 L 47.407399999999996 47.407399999999996 L -47.40741 47.407399999999996 z" stroke-linecap="round" />
</g>
<g transform="matrix(1 0 0 1 176.21 167.82)" id="i-ckx4XobhjUkzK67c1QY"  >
<path style="stroke: rgb(0,0,0); stroke-width: 1; stroke-dasharray: none; stroke-linecap: butt; stroke-dashoffset: 0; stroke-linejoin: miter; stroke-miterlimit: 4; fill: rgb(255,255,255); fill-opacity: 0; fill-rule: nonzero; opacity: 1;" vector-effect="non-scaling-stroke"  transform=" translate(0, 0)" d="M 0 0" stroke-linecap="round" />
</g>
<g transform="matrix(1.85 0 0 1.85 320 215.59)" id="CuuShSxRptMIOWcJmZhHe"  >
<path style="stroke: rgb(61,36,105); stroke-width: 0; stroke-dasharray: none; stroke-linecap: butt; stroke-dashoffset: 0; stroke-linejoin: miter; stroke-miterlimit: 4; fill: rgb(33,91,133); fill-rule: nonzero; opacity: 1;" vector-effect="non-scaling-stroke"  transform=" translate(-113.77, -115.07)" d="M 113.7683 0 C 176.5684 0 227.5366 48.09675 227.5366 107.35882 C 227.5366 122.7405 224.10297 137.36999 217.92004 150.60153 L 217.92004 150.92463 L 217.31798 151.86759 C 213.71038000000001 159.32392000000002 209.22474 166.32354 203.98605 172.74851 L 167.34495 230.13705000000002 L 60.19682000000002 230.13705000000002 L 23.57440000000002 172.77778 C 18.31763000000002 166.33519 13.818250000000019 159.3143 10.202410000000018 151.83412 L 9.689020000000019 151.03003 L 9.817960000000019 151.03003 C 3.508220000000019 137.68611 -0.000019999999981479277 122.90673000000001 -0.000019999999981479277 107.35882000000001 C -0.000019999999981479277 48.09675000000001 50.96818000000002 1.4210854715202004e-14 113.76828000000002 1.4210854715202004e-14 z" stroke-linecap="round" />
</g>
<g transform="matrix(1.57 0 0 1.57 320 551.48)" id="bvz0XNwEfQR5mpnVi1Tgz"  >
<path style="stroke: rgb(139,109,56); stroke-width: 0; stroke-dasharray: none; stroke-linecap: butt; stroke-dashoffset: 0; stroke-linejoin: miter; stroke-miterlimit: 4; fill: rgb(80,53,7); fill-rule: nonzero; opacity: 1;" vector-effect="non-scaling-stroke"  transform=" translate(-50.25, -27.64)" d="M 100.50372 33.95614 C 100.50372 45.73088 90.95841 55.2762 79.18366 55.2762 L 21.320060000000005 55.2762 C 9.545320000000006 55.2762 3.552713678800501e-15 45.73089 3.552713678800501e-15 33.956140000000005 L 3.552713678800501e-15 7.105427357601002e-15 L 100.50372 7.105427357601002e-15 z" stroke-linecap="round" />
</g>
<g transform="matrix(1.85 0 0 1.85 241.15 479.05)" id="0KXBn0TDgzQVSvNJXABnK"  >
<path style="stroke: rgb(176,206,237); stroke-width: 0; stroke-dasharray: none; stroke-linecap: butt; stroke-dashoffset: 0; stroke-linejoin: miter; stroke-miterlimit: 4; fill: rgb(80,53,7); fill-rule: nonzero; opacity: 1;" vector-effect="non-scaling-stroke"  transform=" translate(-12.93, -27.08)" d="M 25.86799 51.11494 L 14.51156 54.157889999999995 L 0 -7.105427357601002e-15 L 12.17178 -7.105427357601002e-15 z" stroke-linecap="round" />
</g>
<g transform="matrix(1.85 0 0 1.85 398.26 477.2)" id="3KGCWHOGo5tU70PW7Yc5k"  >
<path style="stroke: rgb(176,206,237); stroke-width: 0; stroke-dasharray: none; stroke-linecap: butt; stroke-dashoffset: 0; stroke-linejoin: miter; stroke-miterlimit: 4; fill: rgb(80,53,7); fill-rule: nonzero; opacity: 1;" vector-effect="non-scaling-stroke"  transform=" translate(-12.93, -27.08)" d="M 11.35643 54.15492 L 0 51.11197 L 13.69541 -0.000010000000003174137 L 25.86719 -0.000010000000003174137 z" stroke-linecap="round" />
</g>
<g transform="matrix(1.47 0 0 1.85 316.27 215.59)" id="BI0uVBwrtsaOHVQZ9lIOm"  >
<path style="stroke: rgb(61,36,105); stroke-width: 0; stroke-dasharray: none; stroke-linecap: butt; stroke-dashoffset: 0; stroke-linejoin: miter; stroke-miterlimit: 4; fill: rgb(247,47,58); fill-rule: nonzero; opacity: 1;" vector-effect="non-scaling-stroke"  transform=" translate(-113.77, -115.07)" d="M 113.7683 0 C 176.5684 0 227.5366 48.09675 227.5366 107.35882 C 227.5366 122.7405 224.10297 137.36999 217.92004 150.60153 L 217.92004 150.92463 L 217.31798 151.86759 C 213.71038000000001 159.32392000000002 209.22474 166.32354 203.98605 172.74851 L 167.34495 230.13705000000002 L 60.19682000000002 230.13705000000002 L 23.57440000000002 172.77778 C 18.31763000000002 166.33519 13.818250000000019 159.3143 10.202410000000018 151.83412 L 9.689020000000019 151.03003 L 9.817960000000019 151.03003 C 3.508220000000019 137.68611 -0.000019999999981479277 122.90673000000001 -0.000019999999981479277 107.35882000000001 C -0.000019999999981479277 48.09675000000001 50.96818000000002 1.4210854715202004e-14 113.76828000000002 1.4210854715202004e-14 z" stroke-linecap="round" />
</g>
<g transform="matrix(0.87 0 0 1.85 315.91 215.59)" id="YkHKVdqSYJTcXHaycf80N"  >
<path style="stroke: rgb(61,36,105); stroke-width: 0; stroke-dasharray: none; stroke-linecap: butt; stroke-dashoffset: 0; stroke-linejoin: miter; stroke-miterlimit: 4; fill: rgb(33,91,133); fill-rule: nonzero; opacity: 1;" vector-effect="non-scaling-stroke"  transform=" translate(-113.77, -115.07)" d="M 113.7683 0 C 176.5684 0 227.5366 48.09675 227.5366 107.35882 C 227.5366 122.7405 224.10297 137.36999 217.92004 150.60153 L 217.92004 150.92463 L 217.31798 151.86759 C 213.71038000000001 159.32392000000002 209.22474 166.32354 203.98605 172.74851 L 167.34495 230.13705000000002 L 60.19682000000002 230.13705000000002 L 23.57440000000002 172.77778 C 18.31763000000002 166.33519 13.818250000000019 159.3143 10.202410000000018 151.83412 L 9.689020000000019 151.03003 L 9.817960000000019 151.03003 C 3.508220000000019 137.68611 -0.000019999999981479277 122.90673000000001 -0.000019999999981479277 107.35882000000001 C -0.000019999999981479277 48.09675000000001 50.96818000000002 1.4210854715202004e-14 113.76828000000002 1.4210854715202004e-14 z" stroke-linecap="round" />
</g>
<g transform="matrix(1 0 0 1 317.54 436.63)" id="SbDYJqu_OWPuoOpnrVANl"  >
<path style="stroke: rgb(186,137,92); stroke-width: 0; stroke-dasharray: none; stroke-linecap: butt; stroke-dashoffset: 0; stroke-linejoin: miter; stroke-miterlimit: 4; fill: rgb(55,55,55); fill-rule: nonzero; opacity: 1;" vector-effect="non-scaling-stroke"  transform=" translate(-14.7, -22.49)" d="M 0 6.23511 C 0 2.7915499999999995 2.79155 0 6.23511 0 L 23.15748 0 C 26.60104 0 29.39259 2.79155 29.39259 6.23511 L 29.39259 38.735549999999996 C 29.39259 42.179109999999994 26.601039999999998 44.970659999999995 23.15748 44.970659999999995 L 6.235109999999999 44.970659999999995 C 2.7915499999999986 44.970659999999995 -8.881784197001252e-16 42.179109999999994 -8.881784197001252e-16 38.735549999999996 z M 6.46637 31.11525 L 22.92622 31.11525 L 22.92622 14.6554 L 6.466370000000001 14.6554 z" stroke-linecap="round" />
</g>
<g transform="matrix(0.31 0 0 1.85 317.54 215.59)" id="_-c2dbuU78JITo7tZfw32"  >
<path style="stroke: rgb(61,36,105); stroke-width: 0; stroke-dasharray: none; stroke-linecap: butt; stroke-dashoffset: 0; stroke-linejoin: miter; stroke-miterlimit: 4; fill: rgb(247,47,58); fill-rule: nonzero; opacity: 1;" vector-effect="non-scaling-stroke"  transform=" translate(0, 0)" d="M 0.00001 -115.06852 C 62.800110000000004 -115.06852 113.76831 -66.97177 113.76831 -7.709700000000012 C 113.76831 7.671979999999987 110.33468 22.301469999999988 104.15174999999999 35.53300999999999 L 104.15174999999999 35.85610999999999 L 103.54969 36.799069999999986 C 99.94209 44.25539999999999 95.45645 51.25501999999999 90.21776 57.67998999999999 L 53.57666 115.06852999999998 L -53.57147 115.06852999999998 L -90.19389 57.70925999999998 C -95.45066 51.266669999999976 -99.95004 44.24577999999998 -103.56587999999999 36.76559999999998 L -104.07927 35.961509999999976 L -103.95033 35.961509999999976 C -110.26007 22.617589999999975 -113.76831 7.838209999999975 -113.76831 -7.709700000000026 C -113.76831 -66.97177000000002 -62.80011 -115.06852000000002 -0.000010000000003174137 -115.06852000000002 z" stroke-linecap="round" />
</g>
</svg>