<?xml version="1.0" encoding="UTF-8" standalone="no" ?>
<!DOCTYPE svg PUBLIC "-//W3C//DTD SVG 1.1//EN" "http://www.w3.org/Graphics/SVG/1.1/DTD/svg11.dtd">
<svg xmlns="http://www.w3.org/2000/svg" xmlns:xlink="http://www.w3.org/1999/xlink" version="1.1" width="640" height="640" viewBox="0 0 640 640" xml:space="preserve">
<desc>Created with Fabric.js 4.6.0</desc>
<defs>
</defs>
<g transform="matrix(1.02 0 0 1.02 320 320)" id="1jNZbfuJkjW0dJwAm1aNi"  >
<path style="stroke: rgb(148,109,123); stroke-width: 0; stroke-dasharray: none; stroke-linecap: butt; stroke-dashoffset: 0; stroke-linejoin: miter; stroke-miterlimit: 4; fill: rgb(135,206,235); fill-rule: nonzero; opacity: 1;" vector-effect="non-scaling-stroke"  transform=" translate(0, 0)" d="M -314.31111 -314.31111 L 314.31111 -314.31111 L 314.31111 314.31111 L -314.31111 314.31111 z" stroke-linecap="round" />
</g>
<g transform="matrix(0 0.53 -0.47 0 362.13 761.89)" id="nw-VgAY5YvWxFY7NlkK4x"  >
<linearGradient id="SVGID_193_0" gradientUnits="userSpaceOnUse" gradientTransform="matrix(1 0 0 1 -79.27 -254)"  x1="0" y1="254.00172" x2="158.54485" y2="254.00172">
<stop offset="0%" style="stop-color:#ECF5F8;stop-opacity: 1"/>
<stop offset="74.95111973645581%" style="stop-color:#A2D2E6;stop-opacity: 1"/>
<stop offset="100%" style="stop-color:#87CEEB;stop-opacity: 1"/>
</linearGradient>
<path style="stroke: rgb(138,202,55); stroke-width: 0; stroke-dasharray: none; stroke-linecap: butt; stroke-dashoffset: 0; stroke-linejoin: miter; stroke-miterlimit: 4; fill: url(#SVGID_193_0); fill-rule: nonzero; opacity: 1;" vector-effect="non-scaling-stroke"  transform=" translate(0, 0)" d="M -79.27242 93.27006 C -79.27242 46.87223 -59.71114 8.86376 -35.00358 5.875780000000006 C -35.60845 2.194390000000006 -35.92757 -1.6332199999999943 -35.92757 -5.5616399999999935 C -35.92757 -28.820869999999992 -24.740590000000005 -48.54630999999999 -9.293630000000004 -55.31214999999999 C -10.520910000000004 -59.428049999999985 -11.190810000000004 -63.87321999999999 -11.190810000000004 -68.50944999999999 C -11.190810000000004 -69.90576999999999 -11.130050000000004 -71.28475999999999 -11.011590000000004 -72.64264999999999 C -25.750370000000004 -82.13747 -36.27174 -106.94008 -36.27174 -136.01742 C -36.27174 -173.28181999999998 -18.99145 -203.52539 2.3003399999999985 -203.52539 C 2.3577299999999983 -203.52539 2.4150899999999984 -203.52516999999997 2.4724199999999987 -203.52472999999998 C 2.4724199999999987 -203.52495 2.4724199999999987 -203.52516999999997 2.4724199999999987 -203.52539 C 2.4724199999999987 -231.38833 19.67562 -254.00171999999998 40.87242 -254.00171999999998 C 62.06922 -254.00171999999998 79.27242 -231.38831999999996 79.27242 -203.52539 C 79.27242 -201.68688999999998 79.19752 -199.87124999999997 79.05151 -198.08345 L 79.27242 -198.08345 L 79.27242 205.38588000000001 L 79.27242 205.38588000000001 C 79.27242 232.22182 62.06922 254.00172 40.87242 254.00172 C 25.591119999999997 254.00172 12.38543 242.68200000000002 6.204809999999995 226.30878 C 4.976619999999995 226.44616000000002 3.7315599999999947 226.51646000000002 2.4724199999999947 226.51646000000002 C -18.724380000000004 226.51646000000002 -35.927580000000006 206.59537000000003 -35.927580000000006 182.04973 C -35.927580000000006 181.54426 -35.920280000000005 181.04076 -35.90581000000001 180.53935 C -60.18567000000001 176.74745000000001 -79.27243000000001 139.10168000000002 -79.27243000000001 93.27006000000002 z" stroke-linecap="round" />
</g>
<g transform="matrix(0 -0.56 0.56 0 0 151.36)" id="ULk-fKX6Tgqr5r89Q3f1Q"  >
<linearGradient id="SVGID_823_1_1" gradientUnits="userSpaceOnUse" gradientTransform="matrix(1 0 0 1 0 0)"  x1="0" y1="131.45873" x2="89.79148" y2="131.45873">
<stop offset="0%" style="stop-color:#87CEEB;stop-opacity: 1"/>
<stop offset="22.89278402652552%" style="stop-color:#A8DEF4;stop-opacity: 1"/>
<stop offset="100%" style="stop-color:#E7EDEF;stop-opacity: 1"/>
</linearGradient>
<path style="stroke: rgb(107,182,201); stroke-width: 0; stroke-dasharray: none; stroke-linecap: butt; stroke-dashoffset: 0; stroke-linejoin: miter; stroke-miterlimit: 4; fill: url(#SVGID_823_1_1); fill-rule: nonzero; opacity: 1;" vector-effect="non-scaling-stroke"  transform=" translate(-44.9, -131.46)" d="M 0 30.34074 C 0 13.592649999999999 9.9821 0 22.28148 0 C 32.6648 0 41.39659 9.68746 43.86517 22.78261 C 61.47121 23.530869999999997 75.60111 44.473169999999996 75.60111 70.16932 C 75.60111 87.34479999999999 69.28833 102.39642 59.84422000000001 110.71338 C 60.506800000000005 112.84272 60.87037000000001 115.15827 60.87037000000001 117.57932 C 60.87037000000001 119.73295 60.58268000000001 121.8031 60.05275000000001 123.73294999999999 C 76.88497000000001 127.56141 89.79148 149.19349 89.79148 175.27930999999998 C 89.79148 200.98337999999998 77.25997000000001 222.36309999999997 60.78920000000001 226.64619 C 59.57762000000001 246.93009999999998 46.48969000000001 262.91746 30.54000000000001 262.91746 C 13.791910000000009 262.91746 0.19926000000000954 245.28949 0.19926000000000954 223.56931 C 0.19926000000000954 221.67441 0.30272000000000954 219.81065 0.5027000000000095 217.98702 C 0.18524000000000945 216.67212 0.017040000000009492 215.29899 0.017040000000009492 213.88659 L 0.017040000000009492 40.112010000000026 C 0.017040000000009492 38.807770000000026 0.16046000000000948 37.53702000000003 0.4324000000000095 36.31469000000003 C 0.14879000000000953 34.38306000000003 0.000010000000009502408 32.38541000000003 0.000010000000009502408 30.34073000000003 z" stroke-linecap="round" />
</g>
<g transform="matrix(0 -0.56 0.56 0 640 151.25)" id="8G_isnpfD5I62Ze1fURAM"  >
<linearGradient id="SVGID_2" gradientUnits="userSpaceOnUse" gradientTransform="matrix(1 0 0 1 0 0)"  x1="0" y1="131.45873" x2="89.79148" y2="131.45873">
<stop offset="0%" style="stop-color:#87CEEB;stop-opacity: 1"/>
<stop offset="22.89278402652552%" style="stop-color:#A8DEF4;stop-opacity: 1"/>
<stop offset="100%" style="stop-color:#E7EDEF;stop-opacity: 1"/>
</linearGradient>
<path style="stroke: rgb(107,182,201); stroke-width: 0; stroke-dasharray: none; stroke-linecap: butt; stroke-dashoffset: 0; stroke-linejoin: miter; stroke-miterlimit: 4; fill: url(#SVGID_2); fill-rule: nonzero; opacity: 1;" vector-effect="non-scaling-stroke"  transform=" translate(-44.9, -131.46)" d="M 0 30.34074 C 0 13.592649999999999 9.9821 0 22.28148 0 C 32.6648 0 41.39659 9.68746 43.86517 22.78261 C 61.47121 23.530869999999997 75.60111 44.473169999999996 75.60111 70.16932 C 75.60111 87.34479999999999 69.28833 102.39642 59.84422000000001 110.71338 C 60.506800000000005 112.84272 60.87037000000001 115.15827 60.87037000000001 117.57932 C 60.87037000000001 119.73295 60.58268000000001 121.8031 60.05275000000001 123.73294999999999 C 76.88497000000001 127.56141 89.79148 149.19349 89.79148 175.27930999999998 C 89.79148 200.98337999999998 77.25997000000001 222.36309999999997 60.78920000000001 226.64619 C 59.57762000000001 246.93009999999998 46.48969000000001 262.91746 30.54000000000001 262.91746 C 13.791910000000009 262.91746 0.19926000000000954 245.28949 0.19926000000000954 223.56931 C 0.19926000000000954 221.67441 0.30272000000000954 219.81065 0.5027000000000095 217.98702 C 0.18524000000000945 216.67212 0.017040000000009492 215.29899 0.017040000000009492 213.88659 L 0.017040000000009492 40.112010000000026 C 0.017040000000009492 38.807770000000026 0.16046000000000948 37.53702000000003 0.4324000000000095 36.31469000000003 C 0.14879000000000953 34.38306000000003 0.000010000000009502408 32.38541000000003 0.000010000000009502408 30.34073000000003 z" stroke-linecap="round" />
</g>
<g transform="matrix(0 -0.59 -0.59 0 499.33 487.07)" id="d9ODpFcrzpYHjiR-f88dB"  >
<linearGradient id="SVGID_825_3" gradientUnits="userSpaceOnUse" gradientTransform="matrix(1 0 0 1 0 0)"  x1="0" y1="131.45873" x2="89.79148" y2="131.45873">
<stop offset="0%" style="stop-color:#87CEEB;stop-opacity: 1"/>
<stop offset="22.89278402652552%" style="stop-color:#A8DEF4;stop-opacity: 1"/>
<stop offset="100%" style="stop-color:#E7EDEF;stop-opacity: 1"/>
</linearGradient>
<path style="stroke: rgb(107,182,201); stroke-width: 0; stroke-dasharray: none; stroke-linecap: butt; stroke-dashoffset: 0; stroke-linejoin: miter; stroke-miterlimit: 4; fill: url(#SVGID_825_3); fill-rule: nonzero; opacity: 1;" vector-effect="non-scaling-stroke"  transform=" translate(-44.9, -131.46)" d="M 0 30.34074 C 0 13.592649999999999 9.9821 0 22.28148 0 C 32.6648 0 41.39659 9.68746 43.86517 22.78261 C 61.47121 23.530869999999997 75.60111 44.473169999999996 75.60111 70.16932 C 75.60111 87.34479999999999 69.28833 102.39642 59.84422000000001 110.71338 C 60.506800000000005 112.84272 60.87037000000001 115.15827 60.87037000000001 117.57932 C 60.87037000000001 119.73295 60.58268000000001 121.8031 60.05275000000001 123.73294999999999 C 76.88497000000001 127.56141 89.79148 149.19349 89.79148 175.27930999999998 C 89.79148 200.98337999999998 77.25997000000001 222.36309999999997 60.78920000000001 226.64619 C 59.57762000000001 246.93009999999998 46.48969000000001 262.91746 30.54000000000001 262.91746 C 13.791910000000009 262.91746 0.19926000000000954 245.28949 0.19926000000000954 223.56931 C 0.19926000000000954 221.67441 0.30272000000000954 219.81065 0.5027000000000095 217.98702 C 0.18524000000000945 216.67212 0.017040000000009492 215.29899 0.017040000000009492 213.88659 L 0.017040000000009492 40.112010000000026 C 0.017040000000009492 38.807770000000026 0.16046000000000948 37.53702000000003 0.4324000000000095 36.31469000000003 C 0.14879000000000953 34.38306000000003 0.000010000000009502408 32.38541000000003 0.000010000000009502408 30.34073000000003 z" stroke-linecap="round" />
</g>
<g transform="matrix(0 -0.53 -0.53 0 296.71 398.75)" id="SZuwGA4PBcAokQzO4Ykev"  >
<linearGradient id="SVGID_15_4" gradientUnits="userSpaceOnUse" gradientTransform="matrix(1 0 0 1 0 0)"  x1="0" y1="131.45873" x2="89.79148" y2="131.45873">
<stop offset="0%" style="stop-color:#87CEEB;stop-opacity: 1"/>
<stop offset="22.89278402652552%" style="stop-color:#A8DEF4;stop-opacity: 1"/>
<stop offset="100%" style="stop-color:#E7EDEF;stop-opacity: 1"/>
</linearGradient>
<path style="stroke: rgb(107,182,201); stroke-width: 0; stroke-dasharray: none; stroke-linecap: butt; stroke-dashoffset: 0; stroke-linejoin: miter; stroke-miterlimit: 4; fill: url(#SVGID_15_4); fill-rule: nonzero; opacity: 1;" vector-effect="non-scaling-stroke"  transform=" translate(-44.9, -131.46)" d="M 0 30.34074 C 0 13.592649999999999 9.9821 0 22.28148 0 C 32.6648 0 41.39659 9.68746 43.86517 22.78261 C 61.47121 23.530869999999997 75.60111 44.473169999999996 75.60111 70.16932 C 75.60111 87.34479999999999 69.28833 102.39642 59.84422000000001 110.71338 C 60.506800000000005 112.84272 60.87037000000001 115.15827 60.87037000000001 117.57932 C 60.87037000000001 119.73295 60.58268000000001 121.8031 60.05275000000001 123.73294999999999 C 76.88497000000001 127.56141 89.79148 149.19349 89.79148 175.27930999999998 C 89.79148 200.98337999999998 77.25997000000001 222.36309999999997 60.78920000000001 226.64619 C 59.57762000000001 246.93009999999998 46.48969000000001 262.91746 30.54000000000001 262.91746 C 13.791910000000009 262.91746 0.19926000000000954 245.28949 0.19926000000000954 223.56931 C 0.19926000000000954 221.67441 0.30272000000000954 219.81065 0.5027000000000095 217.98702 C 0.18524000000000945 216.67212 0.017040000000009492 215.29899 0.017040000000009492 213.88659 L 0.017040000000009492 40.112010000000026 C 0.017040000000009492 38.807770000000026 0.16046000000000948 37.53702000000003 0.4324000000000095 36.31469000000003 C 0.14879000000000953 34.38306000000003 0.000010000000009502408 32.38541000000003 0.000010000000009502408 30.34073000000003 z" stroke-linecap="round" />
</g>
<g transform="matrix(0 -0.61 0.66 0 39.55 525.55)" id="MXatMYJdqgVa5s11BJQQG"  >
<linearGradient id="SVGID_831_5" gradientUnits="userSpaceOnUse" gradientTransform="matrix(1 0 0 1 -44.9 -131.46)"  x1="0" y1="131.45873" x2="89.79148" y2="131.45873">
<stop offset="0%" style="stop-color:#87CEEB;stop-opacity: 1"/>
<stop offset="22.89278402652552%" style="stop-color:#A8DEF4;stop-opacity: 1"/>
<stop offset="100%" style="stop-color:#E7EDEF;stop-opacity: 1"/>
</linearGradient>
<path style="stroke: rgb(107,182,201); stroke-width: 0; stroke-dasharray: none; stroke-linecap: butt; stroke-dashoffset: 0; stroke-linejoin: miter; stroke-miterlimit: 4; fill: url(#SVGID_831_5); fill-rule: nonzero; opacity: 1;" vector-effect="non-scaling-stroke"  transform=" translate(0, 0)" d="M -44.89574 -101.11799 C -44.89574 -117.86608000000001 -34.91364 -131.45873 -22.614260000000005 -131.45873 C -12.230940000000006 -131.45873 -3.4991500000000038 -121.77127 -1.0305700000000044 -108.67612 C 16.575469999999996 -107.92786 30.705369999999995 -86.98555999999999 30.705369999999995 -61.28941 C 30.705369999999995 -44.113929999999996 24.392589999999995 -29.062309999999997 14.948479999999995 -20.745349999999995 C 15.611059999999995 -18.616009999999996 15.974629999999994 -16.300459999999994 15.974629999999994 -13.879409999999995 C 15.974629999999994 -11.725779999999995 15.686939999999995 -9.655629999999995 15.157009999999994 -7.725779999999995 C 31.989229999999992 -3.897319999999995 44.895739999999996 17.73476000000001 44.895739999999996 43.82058000000001 C 44.895739999999996 69.52465000000001 32.36422999999999 90.90437 15.893459999999997 95.18746000000002 C 14.681879999999998 115.47137000000001 1.5939499999999978 131.45873 -14.35574 131.45873 C -31.103830000000002 131.45873 -44.69648 113.83076 -44.69648 92.11058 C -44.69648 90.21567999999999 -44.59302 88.35191999999999 -44.39304 86.52829 C -44.710499999999996 85.21339 -44.8787 83.84026 -44.8787 82.42786 L -44.8787 -91.34671999999999 C -44.8787 -92.65096 -44.73528 -93.92170999999999 -44.46334 -95.14403999999999 C -44.746950000000005 -97.07566999999999 -44.89573 -99.07332 -44.89573 -101.118 z" stroke-linecap="round" />
</g>
<g transform="matrix(0 -0.61 0.66 0 680.06 525.68)" id="IfTmunPMZRzOHcLzZ7UWt"  >
<linearGradient id="SVGID_6" gradientUnits="userSpaceOnUse" gradientTransform="matrix(1 0 0 1 -44.9 -131.46)"  x1="0" y1="131.45873" x2="89.79148" y2="131.45873">
<stop offset="0%" style="stop-color:#87CEEB;stop-opacity: 1"/>
<stop offset="22.89278402652552%" style="stop-color:#A8DEF4;stop-opacity: 1"/>
<stop offset="100%" style="stop-color:#E7EDEF;stop-opacity: 1"/>
</linearGradient>
<path style="stroke: rgb(107,182,201); stroke-width: 0; stroke-dasharray: none; stroke-linecap: butt; stroke-dashoffset: 0; stroke-linejoin: miter; stroke-miterlimit: 4; fill: url(#SVGID_6); fill-rule: nonzero; opacity: 1;" vector-effect="non-scaling-stroke"  transform=" translate(0, 0)" d="M -44.89574 -101.11799 C -44.89574 -117.86608000000001 -34.91364 -131.45873 -22.614260000000005 -131.45873 C -12.230940000000006 -131.45873 -3.4991500000000038 -121.77127 -1.0305700000000044 -108.67612 C 16.575469999999996 -107.92786 30.705369999999995 -86.98555999999999 30.705369999999995 -61.28941 C 30.705369999999995 -44.113929999999996 24.392589999999995 -29.062309999999997 14.948479999999995 -20.745349999999995 C 15.611059999999995 -18.616009999999996 15.974629999999994 -16.300459999999994 15.974629999999994 -13.879409999999995 C 15.974629999999994 -11.725779999999995 15.686939999999995 -9.655629999999995 15.157009999999994 -7.725779999999995 C 31.989229999999992 -3.897319999999995 44.895739999999996 17.73476000000001 44.895739999999996 43.82058000000001 C 44.895739999999996 69.52465000000001 32.36422999999999 90.90437 15.893459999999997 95.18746000000002 C 14.681879999999998 115.47137000000001 1.5939499999999978 131.45873 -14.35574 131.45873 C -31.103830000000002 131.45873 -44.69648 113.83076 -44.69648 92.11058 C -44.69648 90.21567999999999 -44.59302 88.35191999999999 -44.39304 86.52829 C -44.710499999999996 85.21339 -44.8787 83.84026 -44.8787 82.42786 L -44.8787 -91.34671999999999 C -44.8787 -92.65096 -44.73528 -93.92170999999999 -44.46334 -95.14403999999999 C -44.746950000000005 -97.07566999999999 -44.89573 -99.07332 -44.89573 -101.118 z" stroke-linecap="round" />
</g>
<g transform="matrix(0 0.68 -0.68 0 536.24 308.35)" id="wDa1HleDa8HSG-sFBKC7b"  >
<linearGradient id="SVGID_168_7" gradientUnits="userSpaceOnUse" gradientTransform="matrix(1 0 0 1 -38.25 -131.63)"  x1="0" y1="131.62557500000003" x2="76.49459" y2="131.62557500000003">
<stop offset="0%" style="stop-color:#F0F6F8;stop-opacity: 1"/>
<stop offset="69.42705768809519%" style="stop-color:#ABD5E6;stop-opacity: 1"/>
<stop offset="100%" style="stop-color:#87CEEB;stop-opacity: 1"/>
</linearGradient>
<path style="stroke: rgb(33,231,177); stroke-width: 0; stroke-dasharray: none; stroke-linecap: butt; stroke-dashoffset: 0; stroke-linejoin: miter; stroke-miterlimit: 4; fill: url(#SVGID_168_7); fill-rule: nonzero; opacity: 1;" vector-effect="non-scaling-stroke"  transform=" translate(0, 0)" d="M 38.23303 -98.97205 L 38.23303 96.18258 L 37.89172 96.18258 C 36.42971 116.18818 27.16315 131.62558 15.961389999999998 131.62558 C 5.5247199999999985 131.62558 -3.232090000000003 118.22491000000001 -5.56202 100.21433000000002 C -6.768870000000001 100.49842000000002 -8.00315 100.64552000000002 -9.258610000000001 100.64552000000002 C -23.284820000000003 100.64552000000002 -34.66841 82.28489000000002 -34.66841 59.66197000000002 C -34.66841 44.844000000000015 -29.78459 31.854650000000017 -22.47325 24.655680000000018 C -22.61632 22.702330000000018 -22.69041 20.70435000000002 -22.69041 18.671970000000016 C -22.69041 15.841560000000015 -22.54671 13.077880000000016 -22.27311 10.408520000000015 C -31.724649999999997 3.773020000000015 -38.24729 -10.265269999999985 -38.24729 -26.498029999999986 C -38.24729 -42.912649999999985 -31.57768 -57.08334999999998 -21.954349999999998 -63.624799999999986 C -22.434029999999996 -66.79344999999999 -22.688599999999997 -70.10729999999998 -22.688599999999997 -73.51802999999998 C -22.688599999999997 -94.78365999999998 -12.792229999999998 -112.28310999999998 -0.14255999999999602 -114.30640999999997 C 3.170310000000004 -124.56778999999997 10.053370000000005 -131.62556999999998 18.001400000000004 -131.62556999999998 C 29.17714 -131.62556999999998 38.2473 -117.67146999999999 38.2473 -100.47802999999999 C 38.2473 -99.97314999999999 38.23948 -99.47106999999998 38.22401 -98.97205 z" stroke-linecap="round" />
</g>
<g transform="matrix(0 0.74 -0.74 0 165.53 0)" id="zY-cCXwJ7ryyX2-UaoR7_"  >
<linearGradient id="SVGID_338_8" gradientUnits="userSpaceOnUse" gradientTransform="matrix(1 0 0 1 0 0)"  x1="0" y1="109.15741000000001" x2="75.16221999999999" y2="109.15741000000001">
<stop offset="0%" style="stop-color:#ECF3F6;stop-opacity: 1"/>
<stop offset="69.37515729832006%" style="stop-color:#B0D8E8;stop-opacity: 1"/>
<stop offset="100%" style="stop-color:#87CEEB;stop-opacity: 1"/>
</linearGradient>
<path style="stroke: rgb(71,230,86); stroke-width: 0; stroke-dasharray: none; stroke-linecap: butt; stroke-dashoffset: 0; stroke-linejoin: miter; stroke-miterlimit: 4; fill: url(#SVGID_338_8); fill-rule: nonzero; opacity: 1;" vector-effect="non-scaling-stroke"  transform=" translate(-37.58, -109.16)" d="M 75.16221 170.90741 C 75.16221 197.0763 63.48102 218.31482 49.08814 218.31482 C 35.5885 218.31482 24.47443 199.6307 23.146900000000002 175.71881 C 10.096700000000002 172.73434 -0.000009999999996068709 152.80862 -0.000009999999996068709 128.69741 C -0.000009999999996068709 109.52730999999999 6.382480000000004 93.00301999999999 15.557340000000003 85.53546999999999 C 14.942210000000003 82.11916999999998 14.611260000000003 78.4934 14.611260000000003 74.73740999999998 C 14.611260000000003 56.94422999999998 22.038340000000005 42.073329999999984 31.921180000000007 38.55068999999998 C 33.83093000000001 16.609869999999983 42.702690000000004 -2.1316282072803006e-14 53.34814000000001 -2.1316282072803006e-14 C 65.38583000000001 -2.1316282072803006e-14 75.15555 21.23851999999998 75.15555 47.40740999999998 C 75.15555 49.97908999999998 75.0612 52.50314999999998 74.87962 54.96411999999998 L 74.87962 163.90851999999998 C 75.06577 166.19261999999998 75.1622 168.52966999999998 75.1622 170.90740999999997 z" stroke-linecap="round" />
</g>
<g transform="matrix(0 0.74 -0.74 0 165.49 639.53)" id="qu4NSLjYprSoYciTxZ7_V"  >
<linearGradient id="SVGID_9" gradientUnits="userSpaceOnUse" gradientTransform="matrix(1 0 0 1 0 0)"  x1="0" y1="109.15741000000001" x2="75.16221999999999" y2="109.15741000000001">
<stop offset="0%" style="stop-color:#ECF3F6;stop-opacity: 1"/>
<stop offset="69.37515729832006%" style="stop-color:#B0D8E8;stop-opacity: 1"/>
<stop offset="100%" style="stop-color:#87CEEB;stop-opacity: 1"/>
</linearGradient>
<path style="stroke: rgb(71,230,86); stroke-width: 0; stroke-dasharray: none; stroke-linecap: butt; stroke-dashoffset: 0; stroke-linejoin: miter; stroke-miterlimit: 4; fill: url(#SVGID_9); fill-rule: nonzero; opacity: 1;" vector-effect="non-scaling-stroke"  transform=" translate(-37.58, -109.16)" d="M 75.16221 170.90741 C 75.16221 197.0763 63.48102 218.31482 49.08814 218.31482 C 35.5885 218.31482 24.47443 199.6307 23.146900000000002 175.71881 C 10.096700000000002 172.73434 -0.000009999999996068709 152.80862 -0.000009999999996068709 128.69741 C -0.000009999999996068709 109.52730999999999 6.382480000000004 93.00301999999999 15.557340000000003 85.53546999999999 C 14.942210000000003 82.11916999999998 14.611260000000003 78.4934 14.611260000000003 74.73740999999998 C 14.611260000000003 56.94422999999998 22.038340000000005 42.073329999999984 31.921180000000007 38.55068999999998 C 33.83093000000001 16.609869999999983 42.702690000000004 -2.1316282072803006e-14 53.34814000000001 -2.1316282072803006e-14 C 65.38583000000001 -2.1316282072803006e-14 75.15555 21.23851999999998 75.15555 47.40740999999998 C 75.15555 49.97908999999998 75.0612 52.50314999999998 74.87962 54.96411999999998 L 74.87962 163.90851999999998 C 75.06577 166.19261999999998 75.1622 168.52966999999998 75.1622 170.90740999999997 z" stroke-linecap="round" />
</g>
<g transform="matrix(0 0.61 0.61 0 194.03 91.89)" id="KiT69UfG_WDVQxS_wUK44"  >
<linearGradient id="SVGID_341_10" gradientUnits="userSpaceOnUse" gradientTransform="matrix(1 0 0 1 0 0)"  x1="0" y1="109.15741000000001" x2="75.16221999999999" y2="109.15741000000001">
<stop offset="0%" style="stop-color:#ECF3F6;stop-opacity: 1"/>
<stop offset="69.37515729832006%" style="stop-color:#B0D8E8;stop-opacity: 1"/>
<stop offset="100%" style="stop-color:#87CEEB;stop-opacity: 1"/>
</linearGradient>
<path style="stroke: rgb(71,230,86); stroke-width: 0; stroke-dasharray: none; stroke-linecap: butt; stroke-dashoffset: 0; stroke-linejoin: miter; stroke-miterlimit: 4; fill: url(#SVGID_341_10); fill-rule: nonzero; opacity: 1;" vector-effect="non-scaling-stroke"  transform=" translate(-37.58, -109.16)" d="M 75.16221 170.90741 C 75.16221 197.0763 63.48102 218.31482 49.08814 218.31482 C 35.5885 218.31482 24.47443 199.6307 23.146900000000002 175.71881 C 10.096700000000002 172.73434 -0.000009999999996068709 152.80862 -0.000009999999996068709 128.69741 C -0.000009999999996068709 109.52730999999999 6.382480000000004 93.00301999999999 15.557340000000003 85.53546999999999 C 14.942210000000003 82.11916999999998 14.611260000000003 78.4934 14.611260000000003 74.73740999999998 C 14.611260000000003 56.94422999999998 22.038340000000005 42.073329999999984 31.921180000000007 38.55068999999998 C 33.83093000000001 16.609869999999983 42.702690000000004 -2.1316282072803006e-14 53.34814000000001 -2.1316282072803006e-14 C 65.38583000000001 -2.1316282072803006e-14 75.15555 21.23851999999998 75.15555 47.40740999999998 C 75.15555 49.97908999999998 75.0612 52.50314999999998 74.87962 54.96411999999998 L 74.87962 163.90851999999998 C 75.06577 166.19261999999998 75.1622 168.52966999999998 75.1622 170.90740999999997 z" stroke-linecap="round" />
</g>
<g transform="matrix(0 0.74 0.74 0 529.79 50.9)" id="3u5gFuGdvwGLxljjtYLPP"  >
<linearGradient id="SVGID_11" gradientUnits="userSpaceOnUse" gradientTransform="matrix(1 0 0 1 0 0)"  x1="0" y1="109.15741000000001" x2="75.16221999999999" y2="109.15741000000001">
<stop offset="0%" style="stop-color:#ECF3F6;stop-opacity: 1"/>
<stop offset="69.37515729832006%" style="stop-color:#B0D8E8;stop-opacity: 1"/>
<stop offset="100%" style="stop-color:#87CEEB;stop-opacity: 1"/>
</linearGradient>
<path style="stroke: rgb(71,230,86); stroke-width: 0; stroke-dasharray: none; stroke-linecap: butt; stroke-dashoffset: 0; stroke-linejoin: miter; stroke-miterlimit: 4; fill: url(#SVGID_11); fill-rule: nonzero; opacity: 1;" vector-effect="non-scaling-stroke"  transform=" translate(-37.58, -109.16)" d="M 75.16221 170.90741 C 75.16221 197.0763 63.48102 218.31482 49.08814 218.31482 C 35.5885 218.31482 24.47443 199.6307 23.146900000000002 175.71881 C 10.096700000000002 172.73434 -0.000009999999996068709 152.80862 -0.000009999999996068709 128.69741 C -0.000009999999996068709 109.52730999999999 6.382480000000004 93.00301999999999 15.557340000000003 85.53546999999999 C 14.942210000000003 82.11916999999998 14.611260000000003 78.4934 14.611260000000003 74.73740999999998 C 14.611260000000003 56.94422999999998 22.038340000000005 42.073329999999984 31.921180000000007 38.55068999999998 C 33.83093000000001 16.609869999999983 42.702690000000004 -2.1316282072803006e-14 53.34814000000001 -2.1316282072803006e-14 C 65.38583000000001 -2.1316282072803006e-14 75.15555 21.23851999999998 75.15555 47.40740999999998 C 75.15555 49.97908999999998 75.0612 52.50314999999998 74.87962 54.96411999999998 L 74.87962 163.90851999999998 C 75.06577 166.19261999999998 75.1622 168.52966999999998 75.1622 170.90740999999997 z" stroke-linecap="round" />
</g>
<g transform="matrix(0 0.62 -0.62 0 410.04 595.45)" id="Hnk6w6eeQORKnr_xgy5N4"  >
<linearGradient id="SVGID_174_12" gradientUnits="userSpaceOnUse" gradientTransform="matrix(1 0 0 1 0 0)"  x1="0" y1="131.62557500000003" x2="76.49459" y2="131.62557500000003">
<stop offset="0%" style="stop-color:#F0F6F8;stop-opacity: 1"/>
<stop offset="69.42705768809519%" style="stop-color:#ABD5E6;stop-opacity: 1"/>
<stop offset="100%" style="stop-color:#87CEEB;stop-opacity: 1"/>
</linearGradient>
<path style="stroke: rgb(33,231,177); stroke-width: 0; stroke-dasharray: none; stroke-linecap: butt; stroke-dashoffset: 0; stroke-linejoin: miter; stroke-miterlimit: 4; fill: url(#SVGID_174_12); fill-rule: nonzero; opacity: 1;" vector-effect="non-scaling-stroke"  transform=" translate(-38.25, -131.63)" d="M 76.48033 32.65352 L 76.48033 227.80815 L 76.13901999999999 227.80815 C 74.67700999999998 247.81375000000003 65.41044999999998 263.25115 54.20868999999999 263.25115 C 43.77201999999999 263.25115 35.01520999999999 249.85048 32.68527999999999 231.8399 C 31.478429999999992 232.12399 30.24414999999999 232.27109 28.98868999999999 232.27109 C 14.96247999999999 232.27109 3.5788899999999906 213.91046 3.5788899999999906 191.28753999999998 C 3.5788899999999906 176.46956999999998 8.46270999999999 163.48021999999997 15.77404999999999 156.28124999999997 C 15.63097999999999 154.32789999999997 15.55688999999999 152.32991999999996 15.55688999999999 150.29753999999997 C 15.55688999999999 147.46712999999997 15.700589999999991 144.70344999999998 15.97418999999999 142.03408999999996 C 6.52264999999999 135.39858999999996 0.000009999999988963282 121.36029999999997 0.000009999999988963282 105.12753999999995 C 0.000009999999988963282 88.71291999999995 6.669619999999989 74.54221999999996 16.29294999999999 68.00076999999996 C 15.81326999999999 64.83211999999996 15.558699999999991 61.51826999999996 15.558699999999991 58.10753999999996 C 15.558699999999991 36.841909999999956 25.455069999999992 19.34245999999996 38.10473999999999 17.31915999999996 C 41.417609999999996 7.05777999999996 48.30067 -3.907985046680551e-14 56.24869999999999 -3.907985046680551e-14 C 67.42443999999999 -3.907985046680551e-14 76.49459999999999 13.954099999999961 76.49459999999999 31.14753999999996 C 76.49459999999999 31.65241999999996 76.48678 32.15449999999996 76.47130999999999 32.65351999999996 z" stroke-linecap="round" />
</g>
<g transform="matrix(0 0.57 0.57 0 260.12 245.22)" id="VjCIoqihclITdoQFp5E2l"  >
<linearGradient id="SVGID_176_13" gradientUnits="userSpaceOnUse" gradientTransform="matrix(1 0 0 1 0 0)"  x1="0" y1="131.62557500000003" x2="76.49459" y2="131.62557500000003">
<stop offset="0%" style="stop-color:#F0F6F8;stop-opacity: 1"/>
<stop offset="69.42705768809519%" style="stop-color:#ABD5E6;stop-opacity: 1"/>
<stop offset="100%" style="stop-color:#87CEEB;stop-opacity: 1"/>
</linearGradient>
<path style="stroke: rgb(33,231,177); stroke-width: 0; stroke-dasharray: none; stroke-linecap: butt; stroke-dashoffset: 0; stroke-linejoin: miter; stroke-miterlimit: 4; fill: url(#SVGID_176_13); fill-rule: nonzero; opacity: 1;" vector-effect="non-scaling-stroke"  transform=" translate(-38.25, -131.63)" d="M 76.48033 32.65352 L 76.48033 227.80815 L 76.13901999999999 227.80815 C 74.67700999999998 247.81375000000003 65.41044999999998 263.25115 54.20868999999999 263.25115 C 43.77201999999999 263.25115 35.01520999999999 249.85048 32.68527999999999 231.8399 C 31.478429999999992 232.12399 30.24414999999999 232.27109 28.98868999999999 232.27109 C 14.96247999999999 232.27109 3.5788899999999906 213.91046 3.5788899999999906 191.28753999999998 C 3.5788899999999906 176.46956999999998 8.46270999999999 163.48021999999997 15.77404999999999 156.28124999999997 C 15.63097999999999 154.32789999999997 15.55688999999999 152.32991999999996 15.55688999999999 150.29753999999997 C 15.55688999999999 147.46712999999997 15.700589999999991 144.70344999999998 15.97418999999999 142.03408999999996 C 6.52264999999999 135.39858999999996 0.000009999999988963282 121.36029999999997 0.000009999999988963282 105.12753999999995 C 0.000009999999988963282 88.71291999999995 6.669619999999989 74.54221999999996 16.29294999999999 68.00076999999996 C 15.81326999999999 64.83211999999996 15.558699999999991 61.51826999999996 15.558699999999991 58.10753999999996 C 15.558699999999991 36.841909999999956 25.455069999999992 19.34245999999996 38.10473999999999 17.31915999999996 C 41.417609999999996 7.05777999999996 48.30067 -3.907985046680551e-14 56.24869999999999 -3.907985046680551e-14 C 67.42443999999999 -3.907985046680551e-14 76.49459999999999 13.954099999999961 76.49459999999999 31.14753999999996 C 76.49459999999999 31.65241999999996 76.48678 32.15449999999996 76.47130999999999 32.65351999999996 z" stroke-linecap="round" />
</g>
<g transform="matrix(0 0.41 0.37 0 436.99 136.7)" id="pFxjxd0ZK2fIK8DhlJLer"  >
<linearGradient id="SVGID_181_14" gradientUnits="userSpaceOnUse" gradientTransform="matrix(1 0 0 1 -79.27 -254)"  x1="0" y1="254.00172" x2="158.54485" y2="254.00172">
<stop offset="0%" style="stop-color:#ECF5F8;stop-opacity: 1"/>
<stop offset="74.95111973645581%" style="stop-color:#A2D2E6;stop-opacity: 1"/>
<stop offset="100%" style="stop-color:#87CEEB;stop-opacity: 1"/>
</linearGradient>
<path style="stroke: rgb(138,202,55); stroke-width: 0; stroke-dasharray: none; stroke-linecap: butt; stroke-dashoffset: 0; stroke-linejoin: miter; stroke-miterlimit: 4; fill: url(#SVGID_181_14); fill-rule: nonzero; opacity: 1;" vector-effect="non-scaling-stroke"  transform=" translate(0, 0)" d="M -79.27242 93.27006 C -79.27242 46.87223 -59.71114 8.86376 -35.00358 5.875780000000006 C -35.60845 2.194390000000006 -35.92757 -1.6332199999999943 -35.92757 -5.5616399999999935 C -35.92757 -28.820869999999992 -24.740590000000005 -48.54630999999999 -9.293630000000004 -55.31214999999999 C -10.520910000000004 -59.428049999999985 -11.190810000000004 -63.87321999999999 -11.190810000000004 -68.50944999999999 C -11.190810000000004 -69.90576999999999 -11.130050000000004 -71.28475999999999 -11.011590000000004 -72.64264999999999 C -25.750370000000004 -82.13747 -36.27174 -106.94008 -36.27174 -136.01742 C -36.27174 -173.28181999999998 -18.99145 -203.52539 2.3003399999999985 -203.52539 C 2.3577299999999983 -203.52539 2.4150899999999984 -203.52516999999997 2.4724199999999987 -203.52472999999998 C 2.4724199999999987 -203.52495 2.4724199999999987 -203.52516999999997 2.4724199999999987 -203.52539 C 2.4724199999999987 -231.38833 19.67562 -254.00171999999998 40.87242 -254.00171999999998 C 62.06922 -254.00171999999998 79.27242 -231.38831999999996 79.27242 -203.52539 C 79.27242 -201.68688999999998 79.19752 -199.87124999999997 79.05151 -198.08345 L 79.27242 -198.08345 L 79.27242 205.38588000000001 L 79.27242 205.38588000000001 C 79.27242 232.22182 62.06922 254.00172 40.87242 254.00172 C 25.591119999999997 254.00172 12.38543 242.68200000000002 6.204809999999995 226.30878 C 4.976619999999995 226.44616000000002 3.7315599999999947 226.51646000000002 2.4724199999999947 226.51646000000002 C -18.724380000000004 226.51646000000002 -35.927580000000006 206.59537000000003 -35.927580000000006 182.04973 C -35.927580000000006 181.54426 -35.920280000000005 181.04076 -35.90581000000001 180.53935 C -60.18567000000001 176.74745000000001 -79.27243000000001 139.10168000000002 -79.27243000000001 93.27006000000002 z" stroke-linecap="round" />
</g>
</svg>